<svg xmlns="http://www.w3.org/2000/svg" viewBox="0 0 842 300" width="842" height="300">
	<style>
		tspan { white-space:pre }
		.shp0 { fill: #ffffff } 
		.shp1 { fill: #000000 } 
	</style>
	<g id="Layer">
		<g id="Layer">
			<path id="Layer" fill-rule="evenodd" class="shp0" d="M143.57 144.1L114.02 144.1L114.02 186.76L101.93 186.76L101.93 89.46L145.12 89.46C158.94 89.46 169.31 98.15 169.31 112.42L169.31 121.12C169.31 131.62 163.78 139.01 155.49 142.29L170.34 186.76L157.74 186.76L143.57 144.1ZM157.21 112.42C157.21 104.88 152.72 100.94 145.12 100.94L114.02 100.94L114.02 132.61L145.12 132.61C152.72 132.61 157.21 128.68 157.21 121.13L157.21 112.42Z" />
			<path id="Layer" fill-rule="evenodd" class="shp0" d="M254.84 156.89L209.05 156.89L209.05 163.78C209.05 171.33 213.89 175.26 221.14 175.26L260.37 175.26L260.37 186.75L221.14 186.75C207.66 186.75 196.95 178.22 196.95 163.77L196.95 138.66C196.95 124.23 207.66 115.7 221.14 115.7L240.15 115.7C253.97 115.7 264.34 124.39 264.34 138.66L264.34 147.69C264.35 153.45 259.33 156.89 254.84 156.89ZM252.25 138.69C252.25 130.97 247.76 127.2 240.16 127.2L221.15 127.2C213.9 127.2 209.06 131.15 209.06 138.69L209.06 145.42L252.25 145.42L252.25 138.69Z" />
			<path id="Layer" class="shp0" d="M291.82 186.76L291.82 175.27L320.84 175.27L320.84 98.48L300.8 98.48L300.8 87L332.94 87L332.94 175.27L360.07 175.27L360.07 186.76L291.82 186.76Z" />
			<path id="Layer" fill-rule="evenodd" class="shp0" d="M431.61 186.76L407.93 186.76C395.14 186.76 383.74 180.19 383.74 166.08C383.74 152.63 392.38 146.72 405.33 145.41C405.68 145.41 426.58 143.44 432.29 142.79C435.75 142.29 438.51 141.31 439.04 138.19C439.21 137.21 439.04 136.55 439.04 136.55C438.34 130.48 434.02 127.19 427.45 127.19L410.52 127.19C403.27 127.19 399.29 129.65 398.08 134.24L396.52 138.84L385.29 135.56L386.5 131.29C389.61 119.64 400.32 115.71 410.51 115.71L427.44 115.71C441.26 115.71 451.29 124.73 451.29 138.68L451.29 168.04C451.3 179.7 442.83 186.76 431.61 186.76ZM439.21 152.96C437.48 153.45 435.75 153.94 433.85 154.1C427.98 154.76 406.71 156.89 406.55 156.89C397.92 157.71 395.84 160.01 395.84 166.08C395.84 171.82 399.47 175.27 407.93 175.27L431.61 175.27C436.62 175.27 439.21 172.98 439.21 168.06C439.21 168.06 439.21 160.18 439.21 152.96Z" />
			<path id="Layer" class="shp0" d="M516.27 190.04C510.91 201.86 505.73 207.6 492.94 212.03L487.25 214L483.09 203.33L488.79 201.19C497.77 198.08 500.71 195.12 505.2 185.45L508.66 177.9L480.49 118.99L491.55 114.4L515.23 163.61L537.86 114.4L548.92 118.99L516.27 190.04Z" />
			<path id="Layer" fill-rule="evenodd" class="shp0" d="M634.98 156.89L589.18 156.89L589.18 163.78C589.18 171.33 594.02 175.26 601.27 175.26L640.5 175.26L640.5 186.75L601.27 186.75C587.8 186.75 577.09 178.22 577.09 163.77L577.09 138.66C577.09 124.23 587.8 115.7 601.27 115.7L620.28 115.7C634.11 115.7 644.47 124.39 644.47 138.66L644.47 147.69C644.48 153.45 639.47 156.89 634.98 156.89ZM620.29 127.2L601.28 127.2C594.03 127.2 589.19 131.15 589.19 138.69L589.19 145.42L632.39 145.42L632.39 138.69C632.39 130.97 627.9 127.2 620.29 127.2Z" />
			<path id="Layer" class="shp0" d="M728.97 142.79L728.97 138.69C728.97 130.97 724.48 127.2 716.88 127.2L708.24 127.2C700.99 127.2 696.15 131.15 696.15 138.69L696.15 175.27L719.65 175.27L719.65 186.76L668.68 186.76L668.68 175.27L684.06 175.27L684.06 138.69C684.06 124.41 694.42 115.72 708.25 115.72L716.89 115.72C730.71 115.72 741.09 124.41 741.09 138.69L741.09 142.79L728.97 142.79Z" />
		</g>
		<g id="Layer">
			<g id="Layer">
				<g id="Layer">
					<g id="Layer">
						<path id="Layer" class="shp0" d="M16.53 133.78L16.53 133.85L46.23 105.65L16.53 133.78Z" />
					</g>
				</g>
				<g id="Layer">
					<g id="Layer">
						<path id="Layer" class="shp0" d="M25.71 141.32L25.71 142.57L54.76 170.15L54.76 172.76L48.98 178.3L46.23 178.3L16.53 150.1L16.53 150.04L8 141.94L46.23 105.64L48.98 105.64L54.82 111.12L54.82 113.74L25.71 141.32Z" />
					</g>
				</g>
			</g>
		</g>
		<g id="Layer">
			<g id="Layer">
				<g id="Layer">
					<g id="Layer">
						<path id="Layer" class="shp0" d="M796.77 105.64L826.47 133.84L826.47 133.77L796.77 105.64Z" />
					</g>
				</g>
				<g id="Layer">
					<g id="Layer">
						<path id="Layer" class="shp0" d="M796.7 178.3L795.39 179.55L795.39 179.62L796.77 178.3L796.7 178.3Z" />
						<path id="Layer" class="shp0" d="M835 141.94L826.47 150.04L826.47 150.1L796.77 178.3L794.02 178.3L788.24 172.76L788.24 170.15L817.29 142.57L817.29 141.32L788.18 113.74L788.18 111.12L794.02 105.64L796.77 105.64L826.47 133.85L835 141.94Z" />
					</g>
				</g>
			</g>
			<path id="Layer" class="shp1" d="M796.77 178.3L795.39 179.62L795.39 179.55L796.7 178.3L796.77 178.3Z" />
		</g>
	</g>
</svg>